<svg xmlns="http://www.w3.org/2000/svg" xmlns:xlink="http://www.w3.org/1999/xlink" version="1.1" width="256" height="256" viewBox="0 0 256 256" xml:space="preserve">

<defs>
</defs>
<g style="stroke: none; stroke-width: 0; stroke-dasharray: none; stroke-linecap: butt; stroke-linejoin: miter; stroke-miterlimit: 10; fill: none; fill-rule: nonzero; opacity: 1;" transform="translate(1.4065934065934016 1.4065934065934016) scale(2.81 2.81)" >
	<path d="M 83.914 69.449 V 17.907 c 0 -1.263 -1.024 -2.288 -2.288 -2.288 H 8.373 c -1.263 0 -2.288 1.024 -2.288 2.288 v 51.541 H 83.914 z" style="stroke: none; stroke-width: 1; stroke-dasharray: none; stroke-linecap: butt; stroke-linejoin: miter; stroke-miterlimit: 10; fill: rgb(29,84,189); fill-rule: nonzero; opacity: 1;" transform=" matrix(1 0 0 1 0 0) " stroke-linecap="round" />
	<path d="M 78.5 59.449 v -36.31 c 0 -1.162 -0.942 -2.104 -2.104 -2.104 H 13.604 c -1.162 0 -2.104 0.942 -2.104 2.104 v 36.31 H 78.5 z" style="stroke: none; stroke-width: 1; stroke-dasharray: none; stroke-linecap: butt; stroke-linejoin: miter; stroke-miterlimit: 10; fill: rgb(168,207,255); fill-rule: nonzero; opacity: 1;" transform=" matrix(1 0 0 1 0 0) " stroke-linecap="round" />
	<path d="M 56.997 64.449 v 3.857 H 33.003 v -3.857 H 1 v 3.234 c 0 3.699 2.999 6.698 6.698 6.698 h 74.604 c 3.699 0 6.698 -2.999 6.698 -6.698 v -3.234 H 56.997 z" style="stroke: none; stroke-width: 1; stroke-dasharray: none; stroke-linecap: butt; stroke-linejoin: miter; stroke-miterlimit: 10; fill: rgb(173,238,255); fill-rule: nonzero; opacity: 1;" transform=" matrix(1 0 0 1 0 0) " stroke-linecap="round" />
	<path d="M 82.302 75.38 H 7.698 C 3.454 75.38 0 71.927 0 67.682 v -3.233 c 0 -0.553 0.448 -1 1 -1 h 32.003 c 0.552 0 1 0.447 1 1 v 2.857 h 21.994 v -2.857 c 0 -0.553 0.447 -1 1 -1 H 89 c 0.553 0 1 0.447 1 1 v 3.233 C 90 71.927 86.547 75.38 82.302 75.38 z M 2 65.448 v 2.233 c 0 3.142 2.556 5.698 5.698 5.698 h 74.604 c 3.142 0 5.698 -2.557 5.698 -5.698 v -2.233 H 57.997 v 2.857 c 0 0.553 -0.447 1 -1 1 H 33.003 c -0.552 0 -1 -0.447 -1 -1 v -2.857 H 2 z" style="stroke: none; stroke-width: 1; stroke-dasharray: none; stroke-linecap: butt; stroke-linejoin: miter; stroke-miterlimit: 10; fill: rgb(8,28,66); fill-rule: nonzero; opacity: 1;" transform=" matrix(1 0 0 1 0 0) " stroke-linecap="round" />
	<path d="M 83.914 65.448 c -0.553 0 -1 -0.447 -1 -1 V 17.907 c 0 -0.71 -0.577 -1.288 -1.287 -1.288 H 8.374 c -0.71 0 -1.288 0.578 -1.288 1.288 v 46.541 c 0 0.553 -0.448 1 -1 1 s -1 -0.447 -1 -1 V 17.907 c 0 -1.813 1.475 -3.288 3.288 -3.288 h 73.253 c 1.813 0 3.287 1.475 3.287 3.288 v 46.541 C 84.914 65.001 84.467 65.448 83.914 65.448 z" style="stroke: none; stroke-width: 1; stroke-dasharray: none; stroke-linecap: butt; stroke-linejoin: miter; stroke-miterlimit: 10; fill: rgb(8,28,66); fill-rule: nonzero; opacity: 1;" transform=" matrix(1 0 0 1 0 0) " stroke-linecap="round" />
	<path d="M 78.5 60.448 h -67 c -0.552 0 -1 -0.447 -1 -1 v -36.31 c 0 -1.712 1.393 -3.104 3.104 -3.104 h 62.791 c 1.712 0 3.104 1.393 3.104 3.104 v 36.31 C 79.5 60.001 79.053 60.448 78.5 60.448 z M 12.5 58.448 h 65 v -35.31 c 0 -0.609 -0.495 -1.104 -1.104 -1.104 H 13.604 c -0.609 0 -1.104 0.496 -1.104 1.104 V 58.448 z" style="stroke: none; stroke-width: 1; stroke-dasharray: none; stroke-linecap: butt; stroke-linejoin: miter; stroke-miterlimit: 10; fill: rgb(8,28,66); fill-rule: nonzero; opacity: 1;" transform=" matrix(1 0 0 1 0 0) " stroke-linecap="round" />
	<rect x="28.56" y="28.5" rx="0" ry="0" width="32.89" height="23" style="stroke: none; stroke-width: 1; stroke-dasharray: none; stroke-linecap: butt; stroke-linejoin: miter; stroke-miterlimit: 10; fill: rgb(254,254,254); fill-rule: nonzero; opacity: 1;" transform=" matrix(1 0 0 1 0 0) "/>
	<path d="M 61.444 52.5 H 28.556 c -0.552 0 -1 -0.447 -1 -1 v -23 c 0 -0.552 0.448 -1 1 -1 h 32.888 c 0.553 0 1 0.448 1 1 v 23 C 62.444 52.053 61.997 52.5 61.444 52.5 z M 29.556 50.5 h 30.888 v -21 H 29.556 V 50.5 z" style="stroke: none; stroke-width: 1; stroke-dasharray: none; stroke-linecap: butt; stroke-linejoin: miter; stroke-miterlimit: 10; fill: rgb(8,28,66); fill-rule: nonzero; opacity: 1;" transform=" matrix(1 0 0 1 0 0) " stroke-linecap="round" />
	<path d="M 45 44.381 c -0.24 0 -0.48 -0.086 -0.671 -0.258 L 27.885 29.242 c -0.41 -0.371 -0.441 -1.003 -0.071 -1.413 c 0.371 -0.41 1.002 -0.441 1.413 -0.071 L 45 42.032 l 15.773 -14.274 c 0.409 -0.369 1.041 -0.339 1.412 0.071 s 0.339 1.042 -0.07 1.413 L 45.671 44.123 C 45.48 44.294 45.24 44.381 45 44.381 z" style="stroke: none; stroke-width: 1; stroke-dasharray: none; stroke-linecap: butt; stroke-linejoin: miter; stroke-miterlimit: 10; fill: rgb(8,28,66); fill-rule: nonzero; opacity: 1;" transform=" matrix(1 0 0 1 0 0) " stroke-linecap="round" />
	<path d="M 28.557 52.5 c -0.273 0 -0.544 -0.111 -0.742 -0.329 c -0.37 -0.409 -0.339 -1.042 0.071 -1.412 l 12.708 -11.5 c 0.41 -0.37 1.042 -0.338 1.413 0.071 c 0.37 0.409 0.339 1.042 -0.071 1.413 l -12.708 11.5 C 29.036 52.415 28.796 52.5 28.557 52.5 z" style="stroke: none; stroke-width: 1; stroke-dasharray: none; stroke-linecap: butt; stroke-linejoin: miter; stroke-miterlimit: 10; fill: rgb(8,28,66); fill-rule: nonzero; opacity: 1;" transform=" matrix(1 0 0 1 0 0) " stroke-linecap="round" />
	<path d="M 61.444 52.5 c -0.239 0 -0.479 -0.085 -0.671 -0.259 l -12.708 -11.5 c -0.409 -0.371 -0.441 -1.003 -0.07 -1.413 c 0.37 -0.41 1.003 -0.441 1.412 -0.071 l 12.708 11.5 c 0.409 0.37 0.441 1.003 0.07 1.412 C 61.988 52.389 61.717 52.5 61.444 52.5 z" style="stroke: none; stroke-width: 1; stroke-dasharray: none; stroke-linecap: butt; stroke-linejoin: miter; stroke-miterlimit: 10; fill: rgb(8,28,66); fill-rule: nonzero; opacity: 1;" transform=" matrix(1 0 0 1 0 0) " stroke-linecap="round" />
</g>
</svg>